<?xml version="1.0" encoding="UTF-8"?>
<svg id="Layer_2" data-name="Layer 2" xmlns="http://www.w3.org/2000/svg" viewBox="0 0 67.34 50.08">
  <g id="Layer_1-2" data-name="Layer 1">
    <path d="M15.43,0c-3.2-.04-5.73,1.79-5.63,5.25.08,2.58.95,3.57,7.02,7.94,2.24,1.61,4.54,3.51,5.12,4.21q1.05,1.28-3.98-.4c-7.51-2.5-12.44-2.97-15.01-1.41C.12,17.31-.92,20.91.92,22.63c1.88,1.76,4.6,2.06,13.27,1.47q4.14-.28,3.48.65c-2.38,3.34-3.35,10.33-1.86,13.27,1.6,3.15,3.73,4.79,6.23,4.79q1.29,0,1.29,1.93c0,3.43,1.21,5.11,3.7,5.11,2.67,0,4.37-4.44,2.84-7.4-.42-.81-.43-1.06-.08-1.54.23-.32,1.04-1.46,1.8-2.55,1.39-1.99,2.26-2.33,3.02-1.18.58.88.24,4.7-.59,6.68-1.3,3.1-.71,5.3,1.61,5.98,3.72,1.08,6.35-.98,9.59-7.53,2.14-4.32,4.22-7.49,4.92-7.49.39,0,.45.47.32,2.8-.19,3.5.11,4.4,1.7,5.21,2.17,1.11,3.57.57,6.43-2.45,2.96-3.13,5.55-10.19,5.88-16.03.11-2.01.28-2.53,1.25-3.94,2.75-3.99,1.91-8.81-1.91-10.95-1.91-1.07-5.52-1.02-7.45.11-.73.43-1.23.53-1.6.34-.3-.16-1.65-.47-3-.7-5.71-.96-12.84,2.23-17.22,7.7-.97,1.21-1.87,2.21-2,2.23-.13.01-.75-1.02-1.39-2.3-2.75-5.53-6.44-11.65-7.98-13.21C20.81,1.19,17.92.03,15.44,0h-.01ZM28.1,29.41c1.25.04,1.42,3.08.15,4.48-.65.72-1.99.79-2.25.1-.51-1.34.74-4.34,1.91-4.57.07-.01.13-.02.19-.02h0Z"/>
  </g>
</svg>